<svg width="96" height="16" viewBox="0 0 96 16" fill="none" xmlns="http://www.w3.org/2000/svg">
<path d="M0.798 13V3.2H5.516C6.43067 3.2 7.21933 3.34933 7.882 3.648C8.554 3.94667 9.072 4.376 9.436 4.936C9.8 5.48667 9.982 6.14 9.982 6.896C9.982 7.652 9.8 8.30533 9.436 8.856C9.072 9.40667 8.554 9.836 7.882 10.144C7.21933 10.4427 6.43067 10.592 5.516 10.592H2.632L4.102 9.178V13H0.798ZM4.102 9.542L2.632 8.044H5.306C5.76333 8.044 6.09933 7.94133 6.314 7.736C6.538 7.53067 6.65 7.25067 6.65 6.896C6.65 6.54133 6.538 6.26133 6.314 6.056C6.09933 5.85067 5.76333 5.748 5.306 5.748H2.632L4.102 4.25V9.542ZM16.3403 13.224C15.547 13.224 14.8096 13.098 14.1283 12.846C13.4563 12.594 12.873 12.2393 12.3783 11.782C11.8836 11.3153 11.4963 10.7693 11.2163 10.144C10.9456 9.51867 10.8103 8.83733 10.8103 8.1C10.8103 7.35333 10.9456 6.672 11.2163 6.056C11.4963 5.43067 11.8836 4.88933 12.3783 4.432C12.873 3.96533 13.4563 3.606 14.1283 3.354C14.8096 3.102 15.547 2.976 16.3403 2.976C17.143 2.976 17.8803 3.102 18.5523 3.354C19.2243 3.606 19.8076 3.96533 20.3023 4.432C20.797 4.88933 21.1796 5.43067 21.4503 6.056C21.7303 6.672 21.8703 7.35333 21.8703 8.1C21.8703 8.83733 21.7303 9.51867 21.4503 10.144C21.1796 10.7693 20.797 11.3153 20.3023 11.782C19.8076 12.2393 19.2243 12.594 18.5523 12.846C17.8803 13.098 17.143 13.224 16.3403 13.224ZM16.3403 10.55C16.6483 10.55 16.933 10.494 17.1943 10.382C17.465 10.27 17.6983 10.1113 17.8943 9.906C18.0996 9.69133 18.2583 9.43467 18.3703 9.136C18.4823 8.828 18.5383 8.48267 18.5383 8.1C18.5383 7.71733 18.4823 7.37667 18.3703 7.078C18.2583 6.77 18.0996 6.51333 17.8943 6.308C17.6983 6.09333 17.465 5.93 17.1943 5.818C16.933 5.706 16.6483 5.65 16.3403 5.65C16.0323 5.65 15.743 5.706 15.4723 5.818C15.211 5.93 14.9776 6.09333 14.7723 6.308C14.5763 6.51333 14.4223 6.77 14.3103 7.078C14.1983 7.37667 14.1423 7.71733 14.1423 8.1C14.1423 8.48267 14.1983 8.828 14.3103 9.136C14.4223 9.43467 14.5763 9.69133 14.7723 9.906C14.9776 10.1113 15.211 10.27 15.4723 10.382C15.743 10.494 16.0323 10.55 16.3403 10.55ZM23.0695 13V3.2H27.7875C28.7022 3.2 29.4908 3.34933 30.1535 3.648C30.8255 3.94667 31.3435 4.376 31.7075 4.936C32.0715 5.48667 32.2535 6.14 32.2535 6.896C32.2535 7.652 32.0715 8.30533 31.7075 8.856C31.3435 9.39733 30.8255 9.81267 30.1535 10.102C29.4908 10.3913 28.7022 10.536 27.7875 10.536H24.9035L26.3735 9.178V13H23.0695ZM28.9355 13L26.5275 9.43H30.0275L32.4635 13H28.9355ZM26.3735 9.542L24.9035 8.044H27.5775C28.0348 8.044 28.3708 7.94133 28.5855 7.736C28.8095 7.53067 28.9215 7.25067 28.9215 6.896C28.9215 6.54133 28.8095 6.26133 28.5855 6.056C28.3708 5.85067 28.0348 5.748 27.5775 5.748H24.9035L26.3735 4.25V9.542ZM35.4924 13V5.762H32.6224V3.2H41.6664V5.762H38.7964V13H35.4924ZM45.6046 7.372H49.9166V9.864H45.6046V7.372ZM45.8286 13H42.5246V3.2H50.4906V5.692H45.8286V13ZM56.604 13.224C55.8106 13.224 55.0733 13.098 54.392 12.846C53.72 12.594 53.1366 12.2393 52.642 11.782C52.1473 11.3153 51.76 10.7693 51.48 10.144C51.2093 9.51867 51.074 8.83733 51.074 8.1C51.074 7.35333 51.2093 6.672 51.48 6.056C51.76 5.43067 52.1473 4.88933 52.642 4.432C53.1366 3.96533 53.72 3.606 54.392 3.354C55.0733 3.102 55.8106 2.976 56.604 2.976C57.4066 2.976 58.144 3.102 58.816 3.354C59.488 3.606 60.0713 3.96533 60.566 4.432C61.0606 4.88933 61.4433 5.43067 61.714 6.056C61.994 6.672 62.134 7.35333 62.134 8.1C62.134 8.83733 61.994 9.51867 61.714 10.144C61.4433 10.7693 61.0606 11.3153 60.566 11.782C60.0713 12.2393 59.488 12.594 58.816 12.846C58.144 13.098 57.4066 13.224 56.604 13.224ZM56.604 10.55C56.912 10.55 57.1966 10.494 57.458 10.382C57.7286 10.27 57.962 10.1113 58.158 9.906C58.3633 9.69133 58.522 9.43467 58.634 9.136C58.746 8.828 58.802 8.48267 58.802 8.1C58.802 7.71733 58.746 7.37667 58.634 7.078C58.522 6.77 58.3633 6.51333 58.158 6.308C57.962 6.09333 57.7286 5.93 57.458 5.818C57.1966 5.706 56.912 5.65 56.604 5.65C56.296 5.65 56.0066 5.706 55.736 5.818C55.4746 5.93 55.2413 6.09333 55.036 6.308C54.84 6.51333 54.686 6.77 54.574 7.078C54.462 7.37667 54.406 7.71733 54.406 8.1C54.406 8.48267 54.462 8.828 54.574 9.136C54.686 9.43467 54.84 9.69133 55.036 9.906C55.2413 10.1113 55.4746 10.27 55.736 10.382C56.0066 10.494 56.296 10.55 56.604 10.55ZM63.3332 13V3.2H66.6372V10.438H71.0612V13H63.3332ZM71.9738 13V3.2H75.2778V13H71.9738ZM79.9483 7.372H84.2603V9.864H79.9483V7.372ZM80.1723 13H76.8683V3.2H84.8343V5.692H80.1723V13ZM88.3981 13V8.702L89.1541 10.676L84.7021 3.2H88.1881L91.1981 8.31H89.1681L92.2061 3.2H95.3981L90.9741 10.676L91.7021 8.702V13H88.3981Z" fill="#1F2B34"/>
</svg>
